# xmcd
#
# Track frame offsets:
#	150
#	17637
#	34050
#	50726
#	66787
#	85001
#	99959
#	120838
#	141401
#	156466
#	173071
#	186296
#
# Disc length: 2703 seconds
#
# Revision: 1
# Processed by: cddbd v1.5.2PL0 Copyright (c) Steve Scherf et al.
# Submitted via: EZCDAudioConverter 1.3.4.1
#
DISCID=9a0a8d0c
DTITLE=Intocable - En Peligro De Extinción
DYEAR=2013
DGENRE=Latino
TTITLE0=Nos Faltó Hablar
TTITLE1=Cómo Se Fue Ella
TTITLE2=Decidimos (Bien o Mal)
TTITLE3=Culpable Fui (Cupable Soy)
TTITLE4=No Será Tarde
TTITLE5=Cómo Se Olvida
TTITLE6=Dimelo
TTITLE7=Te Amo (Para Siempre)
TTITLE8=Te Deseo Lo Mejor
TTITLE9=Cada Vez Que Estás Conmigo
TTITLE10=Se Acabó Tu Fe
TTITLE11=Y Te Vas
EXTD=
EXTT0=
EXTT1=
EXTT2=
EXTT3=
EXTT4=
EXTT5=
EXTT6=
EXTT7=
EXTT8=
EXTT9=
EXTT10=
EXTT11=
PLAYORDER=
